PathFileType	4	(X/Y/Z)	50_1_rein_41_p0_0-411_filt_butterworth.trc
DataRate	CameraRate	NumFrames	NumMarkers	Units	OrigDataRate	OrigDataStartFrame	OrigNumFrames
60.0	60.0	5	27	m	60.0	308	411
Frame#	Time	RHip			RKnee			RAnkle			RBigToe			RSmallToe			RHeel			LHip			LKnee			LAnkle			LBigToe			LSmallToe			LHeel			Neck			Head			Nose			RShoulder			RElbow			RWrist			RThumb			RIndex			RPinky			LShoulder			LElbow			LWrist			LThumb			LIndex			LPinky			
		X1	Y1	Z1	X2	Y2	Z2	X3	Y3	Z3	X4	Y4	Z4	X5	Y5	Z5	X6	Y6	Z6	X7	Y7	Z7	X8	Y8	Z8	X9	Y9	Z9	X10	Y10	Z10	X11	Y11	Z11	X12	Y12	Z12	X13	Y13	Z13	X14	Y14	Z14	X15	Y15	Z15	X16	Y16	Z16	X17	Y17	Z17	X18	Y18	Z18	X19	Y19	Z19	X20	Y20	Z20	X21	Y21	Z21	X22	Y22	Z22	X23	Y23	Z23	X24	Y24	Z24	X25	Y25	Z25	X26	Y26	Z26	X27	Y27	Z27	
308	5.133333333333334	0.28646211930722026	0.714734478669411	0.5421936545860754	0.25761622816439067	0.7621477188784385	0.9261463553815623	0.29848173561634095	0.9615914436322159	1.341708304554332	0.2554878131424682	0.8377447522905158	1.4087143905687414	0.3261765034341249	0.8245322407218869	1.4017048739910296	0.28270835315153153	1.072579083898701	1.398643208146034	0.10825726679410433	0.7598078627470414	0.54673808848645	0.10898626849614423	0.8100520501975803	0.9296136436219589	0.10310761777589676	1.0177284188497153	1.351919128354454	0.09256929237695616	0.8292747458080961	1.3865798579489972	0.04048796956011208	0.882022046728266	1.3903881646108802	0.12033489742597579	1.08037989110115	1.4072722725862263	0.19090240183835983	0.5883277349026823	0.004624549596648946	0.20286879103412858	0.45993965594004227	-0.20857035426018122	0.1807373104974984	0.423929877519044	-0.08080664253220533	0.33443039523445317	0.5630996804689323	0.097361830210451	0.40293041972114696	0.7122093865635981	0.34736264830899966	0.312859179611815	0.4996660952102774	0.32446682784088965	0.2627053717158988	0.3881762376631339	0.21863359912758243	0.23257656459204135	0.37529607253645375	0.23905024626902255	0.2286809200494508	0.41101101522456784	0.2978752383306542	0.062070075519237294	0.6374279544385124	0.08065953478825144	0.0001712126202336328	0.7966543427721315	0.3371688749037033	0.026724827755856082	0.5745996025102406	0.28435889809817766	0.03415199252331897	0.5091977435261018	0.19475733777671697	0.010878711731711245	0.4066620870937831	0.22111170671617741	0.042932502296967205	0.42263121122581687	0.26681148217145695
309	5.15	0.28634729716105783	0.7147982772709667	0.5436559501772895	0.2572679633131118	0.7619001984262088	0.9264647700757831	0.2969868079612124	0.9565330813305722	1.3403465975483395	0.25522252175218046	0.8428742463147828	1.4114011053352982	0.3262216940439523	0.8247321253352635	1.401817416681499	0.28353426363986256	1.0701136603903756	1.400006439200153	0.10741366839765465	0.7596647905661079	0.547274219639944	0.10921194995308191	0.8080685483661194	0.9299454552512256	0.10432654195369233	1.0123482138571374	1.3507655779719483	0.09344075997247696	0.8282279984737091	1.386288994872796	0.040149912853393935	0.8817586208665519	1.3904406699710417	0.11968989938554989	1.0802742716158287	1.407520585195412	0.19152910043474922	0.5925313120194748	0.006385011020506357	0.20278403007825344	0.46157316071978677	-0.20760063605852822	0.18068778303496855	0.4240383435523832	-0.07834885696032476	0.3346124162998374	0.5638891551181735	0.09957671536578144	0.40393280455743336	0.7127820462961072	0.3492704035442199	0.3132880718915594	0.49995899910186964	0.3230281232780249	0.26556839089685036	0.39663569320787306	0.21794566207778798	0.23430410992575523	0.37635455530424744	0.23653792351001157	0.2305705323041713	0.4112880908253906	0.29577571857745255	0.06246764925754099	0.637396587416195	0.07989014738773349	-0.003459134346172807	0.794214326312447	0.34099424914886906	0.028500761519370782	0.5731306092022392	0.2806283293825036	0.03709532434930557	0.49897933155190316	0.19132670989282385	0.01884545644780089	0.4059242960620591	0.2141828046841454	0.05220332235729556	0.431479645709096	0.2640565223174639
310	5.166666666666667	0.28616679638035314	0.7145767551693729	0.5450010352664107	0.25719625837974086	0.7618971983568107	0.9264233300982583	0.2958105592032252	0.9524757157565011	1.3392543359125135	0.25571226920616985	0.8455858764454535	1.4128116347293553	0.3258015207082523	0.8232405007094137	1.4018140038952025	0.28436686635537767	1.0702054800601792	1.4013808043947953	0.10549626602568687	0.7592158066735721	0.5473058827116317	0.1086059953740551	0.807656147793692	0.9307126821892503	0.10487086013476624	1.0103937862733088	1.3509104844340931	0.09265052828045155	0.8246379764726381	1.3851977584644184	0.040086766108733185	0.8816884100949387	1.3904177732492689	0.1191742970867841	1.0799686030162179	1.4075218062585573	0.19172402175457182	0.5940120470521474	0.007448562329690475	0.2028251539766713	0.4652772597962741	-0.20709238069853303	0.18060676772757947	0.42435410757085984	-0.07585313811337331	0.33443530009503	0.5649482324854457	0.10235041495078122	0.40393620298732263	0.708600895743631	0.35116337642093254	0.313010516526082	0.4994349064189108	0.3203221979457924	0.27004842615246727	0.4068961831000255	0.21642886178764248	0.2363980705954778	0.37818463470965713	0.2302226646353283	0.23198540595503866	0.4080873365733476	0.29146031581413634	0.06274956403354644	0.6374306696216614	0.07970211715087831	-0.011320139676385878	0.7776252536603085	0.3438354943238508	0.029405071858401213	0.5689593112700477	0.27446451088346374	0.03840252131366904	0.4838412146164924	0.18727572310418614	0.028491423086763737	0.4053359662272168	0.20609804714358504	0.058176558410482554	0.43252864303226657	0.2587499682169676
311	5.183333333333334	0.28598583005552	0.7143211282271714	0.5459549295777774	0.25723010371542143	0.7617549709770394	0.9266193608146306	0.2953255769983255	0.9507748363772922	1.3388024715817581	0.25640634658507877	0.8450144986496173	1.4130677565494072	0.32472236587467995	0.8193745616831802	1.4016830154034932	0.2854098062557458	1.0717147155730644	1.402470572969453	0.10359423384509184	0.758534216942991	0.5472203358641745	0.10728619624656896	0.8075659037383696	0.9311324341550623	0.10492078469789233	1.010379651214634	1.3514441608108159	0.09032604373155873	0.8191438005242316	1.3835041779674166	0.04005986892701543	0.8815531618315414	1.3903987750583453	0.11904726023268758	1.0794078248379835	1.4068953064980994	0.19164518732821093	0.592687313037743	0.008211832549554803	0.20297740823002405	0.4699573455139438	-0.20656372744369325	0.1805452850983422	0.4249979911926505	-0.07335661178385786	0.3340820892476868	0.5661030035972313	0.10488105774321602	0.40347317271567573	0.6994616408349671	0.3534862721376416	0.3126423245395024	0.4958330524233518	0.3160172719785278	0.2742117757254307	0.41476183220534396	0.21327613684303454	0.23777590325739092	0.3786790426855675	0.21960133926728176	0.23314388910021572	0.4013411704132439	0.2847665987750495	0.06280968467475917	0.6376389319829829	0.08087898485032077	-0.020128361735426068	0.7535927027248255	0.34699417672357813	0.029976556040312036	0.5619536331708812	0.2658955810940762	0.04010456644884994	0.464561614033074	0.18235780002268312	0.03767316640366756	0.40488521877484374	0.1963765257036856	0.05722762756386582	0.4217364519979559	0.24863178798200103
312	5.2	0.2860104616546403	0.7145810148246956	0.5465314077538425	0.257268271205122	0.7614283122722945	0.9276855333199756	0.2953115861028647	0.9506659885602242	1.3387932690382698	0.25669298221820913	0.8415077007626182	1.4127411089865711	0.32330862278714034	0.8143116997301763	1.4015093625468562	0.2866202714728441	1.0735521487782789	1.4032674246629662	0.10253741668497102	0.7574940536692691	0.5471400706722873	0.10565188422995	0.807178591113114	0.9309405115309576	0.10482230053634495	1.0106706840875075	1.3517488997907148	0.08812918866373891	0.8146998502740096	1.382120205402136	0.0399861501511362	0.8814589169738541	1.3904177482168536	0.11935396158125659	1.0787935644784223	1.4053960549293967	0.1916836292162426	0.5899855202234305	0.009228059596578303	0.20315333830780077	0.47323936385903054	-0.20559419771737164	0.18049416457699888	0.42592666227222975	-0.07059513861428487	0.33389291054191633	0.5669485762144675	0.106575761248912	0.40250760235989197	0.6861221958350453	0.3570723443434484	0.3126217669592883	0.486007892945706	0.3092821366536734	0.2747670910450778	0.4167604869478961	0.20788398649500509	0.23807978800258767	0.3741130650657365	0.20616564043883545	0.23429306426186725	0.38947260229486164	0.2766317959374255	0.06266078270074579	0.6381625718039626	0.08319962699855789	-0.026905771837848366	0.7299277358027246	0.3502073362664955	0.030545126823822003	0.5521437282640743	0.25621829855262923	0.04414944160508425	0.44351796169902696	0.17626549389633883	0.04388735861882426	0.404345144341861	0.18568679236843028	0.04959012372047536	0.40332042250383515	0.23335105634903827
